<?xml version="1.0" standalone="no"?>
<!DOCTYPE svg PUBLIC "-//W3C//DTD SVG 20010904//EN"
 "http://www.w3.org/TR/2001/REC-SVG-20010904/DTD/svg10.dtd">
<svg version="1.0" xmlns="http://www.w3.org/2000/svg"
 width="460.000000pt" height="460.000000pt" viewBox="0 0 460.000000 460.000000"
 preserveAspectRatio="xMidYMid meet">
<metadata>
Created by potrace 1.14, written by Peter Selinger 2001-2017
</metadata>
<g transform="translate(0.000000,460.000000) scale(0.100000,-0.100000)"
fill="#000000" stroke="none">
<path d="M2484 3344 c-10 -8 -13 -12 -5 -8 10 5 12 3 7 -5 -5 -7 -14 -10 -22
-7 -8 3 -14 1 -14 -3 0 -5 -9 -7 -20 -4 -12 3 -20 0 -20 -6 0 -7 6 -9 13 -5 9
5 9 4 0 -6 -13 -14 -37 -4 -27 12 4 7 2 8 -5 4 -6 -4 -18 -2 -26 4 -8 7 -15 9
-15 4 0 -5 -5 -2 -10 6 -6 9 -10 10 -10 3 0 -8 -12 -10 -35 -6 -29 5 -39 1
-58 -19 -13 -14 -21 -30 -19 -36 6 -19 -26 -14 -37 6 -9 15 -10 15 -11 1 0 -9
6 -19 14 -22 7 -3 16 -16 19 -29 5 -21 5 -21 -7 -5 -12 16 -14 16 -20 2 -4
-11 -12 -14 -27 -10 -15 5 -22 2 -26 -14 -3 -12 -13 -21 -24 -21 -27 0 -25
-42 4 -60 12 -8 33 -16 47 -18 13 -2 29 -7 35 -12 7 -6 16 -5 22 1 7 7 12 6
16 -5 4 -10 1 -16 -8 -16 -10 0 -15 -10 -15 -29 0 -16 -7 -34 -15 -41 -8 -7
-15 -20 -15 -30 0 -21 -19 -30 -61 -30 -18 0 -29 5 -29 14 0 9 -19 16 -52 21
-99 16 -140 7 -406 -82 -73 -25 -136 -42 -139 -39 -4 3 0 6 8 6 11 0 11 2 1 9
-11 6 -10 11 3 24 9 9 14 21 10 26 -3 6 3 15 14 21 12 6 18 18 16 30 -2 11 1
20 6 20 6 0 8 4 5 9 -3 5 10 29 29 54 19 24 31 47 28 51 -4 3 1 6 11 6 9 0 15
4 12 8 -6 10 38 62 53 62 6 0 11 4 11 9 0 5 8 17 18 27 9 10 17 21 17 26 0 5
6 13 14 17 11 7 9 11 -8 21 -18 9 -22 9 -20 -2 3 -21 -12 -48 -24 -41 -5 3 -7
2 -4 -4 4 -6 -11 -19 -32 -29 -25 -12 -35 -22 -28 -26 7 -5 2 -8 -12 -8 -24 0
-24 0 -5 -15 16 -12 16 -14 2 -9 -11 4 -20 0 -24 -10 -3 -9 -12 -16 -20 -16
-8 0 -14 -4 -14 -10 0 -5 -8 -10 -17 -10 -15 0 -16 2 -3 10 27 17 -28 12 -63
-6 -34 -18 -95 -61 -112 -80 -5 -6 -36 -45 -67 -87 -32 -42 -113 -131 -180
-199 -68 -68 -123 -125 -124 -128 0 -3 -4 -13 -7 -22 -4 -10 -9 -24 -11 -31
-5 -17 24 -121 53 -196 25 -62 90 -131 123 -131 30 0 91 38 118 73 30 37 42
34 34 -9 -6 -31 -4 -35 12 -32 11 2 24 14 30 28 l10 25 20 -30 c29 -45 52 -65
73 -65 11 0 22 -4 25 -8 7 -12 -23 -52 -39 -52 -8 0 -17 -4 -20 -10 -4 -6 6
-7 25 -4 36 8 40 -3 5 -16 -27 -10 -30 -31 -6 -41 9 -3 -1 -11 -27 -22 -22 -9
-46 -26 -53 -38 -10 -20 -9 -21 7 -15 15 6 17 5 7 -5 -16 -16 -17 -49 -2 -49
8 0 8 -4 -1 -15 -17 -20 -4 -38 20 -25 10 5 25 8 32 7 7 -2 10 -2 6 0 -15 9
-8 23 11 23 27 0 51 10 51 22 0 5 -10 6 -21 3 -15 -5 -19 -4 -15 4 4 6 24 11
44 10 20 0 31 -3 25 -6 -7 -2 -13 -12 -13 -20 0 -9 -8 -22 -17 -30 -17 -13
-16 -14 5 -8 12 4 22 4 22 0 0 -3 -10 -10 -22 -15 -18 -7 -19 -9 -5 -9 9 -1
17 -5 17 -11 0 -5 7 -10 16 -10 8 0 12 -4 9 -10 -3 -5 -3 -15 1 -21 7 -12 18
-104 17 -151 0 -15 5 -26 11 -25 6 1 11 -12 10 -30 0 -25 3 -30 13 -21 9 7 14
6 19 -6 3 -9 12 -16 20 -16 8 0 14 -7 14 -15 0 -8 5 -15 10 -15 20 0 9 -18
-21 -38 -30 -19 -31 -20 -10 -27 11 -3 26 -3 32 1 8 4 9 3 5 -4 -4 -7 -1 -12
9 -12 11 0 15 -5 11 -15 -3 -9 0 -15 9 -15 8 0 15 -4 15 -8 0 -10 61 -33 71
-26 5 3 9 -2 9 -10 0 -19 16 -21 23 -3 4 9 6 9 6 0 1 -7 11 -13 24 -14 21 0
21 -1 2 -9 l-20 -9 20 -1 c19 -1 19 -2 1 -9 -18 -7 -18 -8 -2 -14 11 -4 16
-13 12 -22 -6 -16 34 -31 59 -22 11 5 13 -2 11 -28 -3 -41 1 -44 14 -13 8 18
9 16 4 -12 -6 -30 -5 -33 9 -22 13 11 16 10 22 -8 6 -20 7 -20 25 2 17 20 19
20 20 6 0 -10 -4 -18 -10 -18 -5 0 -10 -7 -10 -16 0 -8 5 -12 11 -8 8 4 9 -1
5 -17 -7 -24 -7 -24 8 1 15 25 15 25 16 3 0 -27 17 -31 23 -5 3 9 5 3 6 -15 1
-38 25 -54 191 -123 110 -47 118 -48 160 -38 25 6 50 15 55 21 7 6 1 7 -17 3
-16 -3 -28 -2 -28 3 0 18 12 41 22 41 5 0 6 -6 2 -12 -4 -7 3 -3 15 9 26 27
50 31 30 5 -11 -14 -9 -13 9 2 32 27 37 14 7 -18 -14 -15 -25 -29 -25 -32 0
-12 22 -1 46 23 26 26 27 26 22 5 -4 -15 -2 -22 8 -22 8 0 14 4 14 8 0 5 13 7
29 4 20 -3 35 2 49 16 11 11 23 18 26 15 3 -4 6 0 6 7 0 7 3 10 7 7 9 -10 32
25 33 51 0 32 20 17 20 -16 1 -24 3 -22 15 13 8 22 15 42 15 44 0 3 7 -4 15
-15 13 -16 14 -16 9 -1 -8 21 12 23 20 1 5 -14 7 -14 22 0 19 19 26 20 44 4 8
-7 4 -1 -9 15 -28 31 -36 34 -27 11 4 -11 1 -14 -11 -12 -11 2 -18 14 -20 31
-2 25 11 38 19 20 6 -15 67 -53 62 -40 -7 20 36 35 71 25 17 -4 36 -6 43 -3 6
2 12 0 12 -5 0 -6 -8 -10 -17 -11 -10 0 -13 -3 -6 -6 29 -11 216 144 288 240
20 27 34 51 32 53 -2 3 -15 -11 -28 -31 -13 -19 -32 -38 -41 -41 -10 -3 -18
-10 -18 -15 0 -5 -8 -9 -17 -7 -12 2 -17 -3 -15 -13 1 -9 -12 -22 -34 -32 -19
-10 -33 -21 -30 -26 3 -4 -6 -13 -20 -20 -19 -8 -24 -8 -18 1 5 8 2 9 -9 5 -9
-3 -27 -2 -39 3 -23 10 -23 10 2 7 16 -1 24 3 22 11 -1 6 1 11 5 11 19 -3 33
2 33 12 0 5 -5 7 -12 3 -7 -4 -8 -3 -4 4 4 6 2 22 -4 34 l-11 23 20 -22 c20
-24 37 -31 25 -11 -4 7 -3 8 5 4 6 -4 19 -2 27 5 14 12 14 14 -2 26 -10 7 -13
13 -8 13 6 0 15 -5 22 -12 9 -9 15 -9 25 1 10 11 10 13 0 7 -7 -4 -13 -5 -13
-1 0 3 10 10 23 16 l22 10 -22 -5 c-13 -2 -26 0 -29 5 -3 5 2 9 10 9 8 0 26
15 40 33 l26 32 -28 13 -27 12 33 -6 c26 -5 38 -1 53 14 13 14 15 22 6 25 -8
2 -7 9 6 21 9 10 15 22 12 26 -8 13 -35 1 -35 -15 0 -7 -15 -20 -32 -29 -18
-8 -30 -16 -26 -16 4 0 -4 -12 -18 -27 -19 -20 -21 -28 -12 -35 8 -5 9 -8 2
-8 -6 0 -17 7 -24 15 -10 13 -10 19 2 33 9 9 13 22 11 29 -4 12 33 29 55 24
11 -2 11 2 2 20 -9 15 -9 19 -1 14 8 -4 10 4 8 29 -3 20 0 39 5 42 5 3 4 12
-3 20 -10 12 -9 13 5 8 14 -5 16 -2 12 20 -3 14 -1 26 3 26 5 0 11 9 14 20 3
13 1 18 -6 13 -7 -3 -4 2 5 13 16 19 18 23 18 45 0 5 6 7 13 3 9 -6 9 -4 -1 8
-11 14 -10 18 4 26 11 6 15 16 10 28 -6 16 -5 16 15 -2 l22 -19 -17 27 c-17
26 -17 26 4 21 11 -3 18 -8 15 -11 -3 -3 5 -12 17 -20 17 -10 18 -12 4 -7 -19
6 -19 5 -3 -13 18 -20 23 -47 7 -37 -5 3 -10 1 -10 -4 0 -6 4 -11 9 -11 17 0
21 -33 6 -50 -20 -22 -19 -41 1 -33 11 4 12 8 4 13 -8 5 -5 9 9 13 14 3 19 11
16 26 -4 24 5 27 24 9 11 -11 12 -10 5 2 -12 21 -14 40 -4 40 9 0 10 51 2 65
-10 17 -11 35 -1 35 20 0 7 31 -17 40 -35 14 -39 13 -24 -5 11 -13 10 -14 -3
-9 -19 7 -31 34 -15 34 6 0 9 2 6 5 -10 10 -38 -7 -39 -24 0 -10 -2 -11 -6 -3
-2 6 -8 10 -12 8 -4 -3 -8 1 -8 8 0 8 6 12 14 9 9 -4 12 3 11 20 -1 14 -6 23
-10 21 -4 -3 -8 0 -8 6 0 6 -4 8 -10 5 -6 -3 -7 1 -4 9 3 9 1 16 -5 16 -6 0
-11 -4 -11 -10 0 -5 -10 -10 -22 -11 -22 -1 -22 -1 2 -9 17 -6 19 -8 7 -9 -19
-1 -87 25 -87 33 0 3 12 1 26 -4 17 -7 32 -6 47 1 33 18 37 30 22 60 -13 24
-13 28 1 33 14 5 14 8 1 21 -16 15 -12 59 4 49 5 -2 6 12 3 34 -4 29 2 54 29
112 l33 75 2 -51 c0 -28 10 -75 22 -105 19 -47 26 -75 34 -126 1 -7 5 -15 9
-19 3 -3 4 -19 1 -34 -4 -15 -2 -30 3 -33 14 -9 46 21 40 38 -4 9 -1 15 7 15
17 0 28 38 12 43 -6 2 -7 8 -3 13 4 4 19 -5 34 -20 57 -62 148 -70 201 -17 32
31 116 189 131 248 14 52 4 120 -18 128 -9 3 -31 25 -49 48 -32 39 -140 161
-207 232 -16 17 -41 54 -55 80 -34 66 -66 99 -98 101 -49 3 -53 4 -47 14 3 6
2 10 -4 10 -6 0 -8 6 -5 13 6 16 -35 20 -52 6 -7 -6 -10 -18 -7 -27 6 -15 5
-15 -11 -3 -9 8 -15 20 -12 27 3 8 2 13 -2 13 -24 -4 -43 3 -49 17 -7 19 -47
60 -65 67 -11 4 -11 6 0 6 20 1 3 21 -18 21 -14 0 -17 5 -12 23 3 12 10 25 16
29 6 4 -8 8 -31 8 -23 0 -43 5 -45 11 -2 5 -11 7 -20 4 -14 -6 -12 -13 15 -53
18 -25 40 -54 50 -65 10 -10 16 -25 13 -33 -3 -8 1 -14 10 -14 8 0 12 -4 9
-10 -3 -5 1 -10 10 -10 9 0 13 -4 10 -10 -3 -5 -1 -10 4 -10 6 0 11 -5 11 -11
0 -7 12 -23 27 -36 21 -20 23 -27 12 -34 -11 -7 -10 -9 4 -9 10 0 15 -4 12
-10 -3 -5 -1 -10 5 -10 6 0 10 -8 9 -17 -2 -10 3 -29 10 -41 7 -13 15 -35 17
-50 3 -14 8 -30 12 -36 11 -19 11 -36 -2 -36 -6 0 -56 20 -111 44 -123 54
-340 130 -418 146 -80 16 -156 18 -168 4 -6 -7 -19 -11 -29 -9 -11 2 -23 -1
-26 -7 -5 -7 -2 -8 6 -3 9 5 11 4 6 -3 -8 -13 -83 -16 -110 -6 -11 4 -13 11
-7 22 10 18 11 24 11 48 0 8 27 42 61 75 33 32 56 59 50 59 -6 0 -10 3 -10 8
4 21 -2 43 -10 38 -5 -3 -11 3 -14 15 -4 16 -3 18 8 9 11 -9 16 -6 25 11 11
19 10 21 -3 16 -11 -4 -14 -2 -10 9 8 21 -10 17 -24 -6 -7 -10 -10 -27 -6 -36
4 -12 2 -15 -8 -12 -25 8 -22 45 5 64 28 18 33 49 12 77 -16 21 -17 21 -42 1z
m-109 -44 c3 -5 1 -10 -4 -10 -6 0 -11 5 -11 10 0 6 2 10 4 10 3 0 8 -4 11
-10z m-25 -20 c0 -11 -2 -20 -4 -20 -2 0 -6 9 -9 20 -3 11 -1 20 4 20 5 0 9
-9 9 -20z m-40 -40 c0 -5 -5 -10 -11 -10 -5 0 -7 5 -4 10 3 6 8 10 11 10 2 0
4 -4 4 -10z m30 -45 c0 -30 -19 -37 -45 -16 -18 15 -19 15 -7 -1 11 -14 11
-16 -6 -11 -13 3 -19 13 -19 30 0 15 2 20 7 13 6 -9 9 -9 13 1 5 12 7 12 15 1
7 -11 10 -11 16 3 8 22 26 9 26 -20z m17 -27 c-3 -7 -5 -2 -5 12 0 14 2 19 5
13 2 -7 2 -19 0 -25z m30 -30 c-3 -8 -6 -5 -6 6 -1 11 2 17 5 13 3 -3 4 -12 1
-19z m33 -60 c0 -17 4 -27 10 -23 6 3 10 3 10 -2 0 -14 -35 -58 -47 -60 -7 -2
-22 -12 -33 -23 -17 -17 -33 -20 -97 -20 -67 0 -74 2 -58 13 10 8 15 19 11 25
-4 7 -3 12 3 12 5 0 17 7 25 16 12 12 16 12 16 2 0 -7 9 -2 20 12 17 21 19 21
14 5 -4 -15 2 -11 25 13 18 19 36 30 43 26 8 -5 9 -2 5 10 -5 14 -3 17 8 12 8
-3 15 -2 15 3 0 4 7 8 15 8 10 0 15 -10 15 -29z m1060 -133 c11 -13 10 -14 -4
-9 -9 3 -16 10 -16 15 0 13 6 11 20 -6z m-1640 -99 c47 -24 62 -54 40 -82 -14
-15 -56 -19 -64 -5 -3 4 -33 18 -66 30 -67 24 -84 46 -55 67 28 21 94 16 145
-10z m1313 -66 c82 -64 86 -179 6 -156 -34 9 -98 139 -79 161 17 21 42 19 73
-5z m-785 2 c19 -3 32 -10 32 -20 0 -12 -2 -12 -17 -1 -9 8 -14 9 -11 4 4 -6
0 -21 -8 -35 -7 -14 -13 -19 -14 -12 0 7 -4 10 -10 7 -5 -3 -10 -1 -10 4 0 6
-3 10 -7 10 -20 -3 -24 2 -13 16 7 9 8 15 2 15 -13 0 -20 -19 -17 -47 1 -12
-2 -20 -6 -18 -4 3 -12 -2 -19 -10 -7 -8 -24 -12 -41 -10 -17 2 -29 -1 -29 -8
0 -6 -6 -2 -14 9 -13 16 -17 17 -28 5 -11 -12 -10 -13 4 -8 11 4 15 2 12 -6
-5 -15 -44 -20 -44 -6 0 6 -4 8 -9 5 -13 -8 -25 74 -13 86 6 6 12 6 16 -1 10
-16 26 -14 26 3 0 8 8 17 18 19 22 7 157 6 200 -1z m-390 -14 c7 -7 12 -22 12
-35 0 -27 -42 -42 -65 -23 -28 23 -11 70 25 70 9 0 21 -5 28 -12z m412 -33 c0
-8 -4 -15 -10 -15 -5 0 -7 7 -4 15 4 8 8 15 10 15 2 0 4 -7 4 -15z m40 4 c0
-5 -4 -8 -9 -5 -5 4 -12 0 -14 -6 -3 -8 -6 -6 -6 5 -1 9 6 17 14 17 8 0 15 -5
15 -11z m60 -41 c0 -10 -5 -18 -11 -18 -5 0 -7 5 -3 12 5 8 0 9 -14 6 -18 -5
-22 -2 -22 17 0 21 2 22 25 12 14 -7 25 -20 25 -29z m-123 -20 c-3 -8 -6 -5
-6 6 -1 11 2 17 5 13 3 -3 4 -12 1 -19z m-182 -28 c-3 -5 -12 -10 -18 -10 -7
0 -6 4 3 10 19 12 23 12 15 0z m1049 -66 c21 -21 20 -41 -3 -54 -22 -11 -50
-4 -52 14 -5 48 25 71 55 40z m-794 -164 c-20 -13 -43 -13 -35 0 3 6 16 10 28
10 18 0 19 -2 7 -10z m171 -216 c3 3 5 -4 5 -14 0 -11 -4 -20 -8 -20 -4 0 -8
5 -8 10 0 6 -8 10 -17 11 -12 0 -14 2 -5 6 10 4 8 9 -7 20 -12 8 -21 19 -21
25 0 7 13 0 28 -15 16 -15 30 -25 33 -23z m-629 7 c-7 -4 -14 -17 -15 -29 0
-11 -4 -20 -7 -19 -3 1 -6 -2 -8 -8 -2 -5 7 -13 20 -17 26 -7 25 -8 -18 -12
-18 -2 -38 0 -45 5 -11 7 -11 9 -1 9 7 0 11 4 8 9 -3 5 1 11 9 15 8 3 15 11
15 17 0 13 29 38 45 39 6 0 4 -4 -3 -9z m-366 -26 c9 -8 11 -15 6 -15 -5 0
-15 7 -22 15 -7 8 -9 15 -6 15 4 0 14 -7 22 -15z m844 -5 c0 -5 -5 -10 -11
-10 -5 0 -7 5 -4 10 3 6 8 10 11 10 2 0 4 -4 4 -10z m198 -42 c2 -10 -1 -18
-7 -18 -6 0 -11 6 -11 14 0 8 -10 17 -22 19 -16 4 -13 5 7 4 20 -1 31 -8 33
-19z m-1095 -22 c9 -19 14 -46 11 -59 -4 -25 17 -43 37 -31 5 3 9 1 9 -5 0
-11 -79 -35 -88 -27 -3 3 1 6 9 7 8 0 -4 9 -26 19 -30 14 -33 18 -12 14 16 -4
27 -2 27 5 0 6 -8 11 -17 12 -16 0 -15 1 2 8 17 7 17 8 -8 15 -15 3 -27 10
-27 15 0 6 13 6 33 1 29 -9 30 -8 13 5 -19 15 -19 15 3 15 19 0 20 2 9 13 -7
8 -20 16 -28 20 -9 3 -5 6 11 6 19 1 29 -7 42 -33z m67 4 c0 -5 -7 -7 -15 -4
-8 4 -15 8 -15 10 0 2 7 4 15 4 8 0 15 -4 15 -10z m977 2 c7 -4 9 -13 5 -19
-6 -9 -11 -6 -20 7 -13 21 -6 26 15 12z m-663 -39 c-6 -30 -44 -66 -44 -41 0
7 4 20 10 28 5 9 5 19 -2 27 -8 10 -7 12 5 8 8 -4 18 -1 22 5 11 18 16 6 9
-27z m-276 -46 c3 -67 -8 -86 -39 -66 -8 5 -9 9 -4 9 6 0 3 5 -5 10 -13 8 -12
10 3 10 9 0 17 -5 17 -12 0 -6 3 -9 6 -5 3 3 2 12 -2 19 -13 21 -14 42 -1 51
7 5 3 6 -9 2 -17 -4 -22 -1 -20 12 1 17 35 45 46 38 3 -2 6 -32 8 -68z m959
28 c-4 -8 -2 -17 3 -20 6 -4 10 -1 10 4 0 6 4 11 9 11 10 0 9 -25 -1 -35 -3
-3 -2 -23 2 -45 4 -23 3 -40 -2 -40 -5 0 -6 -6 -2 -12 5 -9 2 -8 -10 1 -9 8
-13 17 -8 20 13 8 7 78 -8 96 -6 8 -9 19 -5 25 9 15 18 12 12 -5z m88 -5 c3
-5 1 -10 -4 -10 -6 0 -11 5 -11 10 0 6 2 10 4 10 3 0 8 -4 11 -10z m572 -16
c-3 -3 -12 -4 -19 -1 -8 3 -5 6 6 6 11 1 17 -2 13 -5z m-1806 -33 c-8 -5 -20
-7 -28 -4 -21 8 -15 13 15 13 20 0 23 -3 13 -9z m416 -13 c-3 -8 -6 -5 -6 6
-1 11 2 17 5 13 3 -3 4 -12 1 -19z m1373 14 c0 -4 -10 -9 -22 -9 -18 -2 -20 0
-8 7 18 12 30 13 30 2z m102 -20 c-7 -2 -9 -9 -5 -15 5 -9 2 -8 -8 0 -8 7 -26
10 -40 7 -20 -4 -19 -3 6 9 17 8 37 12 44 9 11 -4 11 -7 3 -10z m-249 1 c-7
-2 -19 -2 -25 0 -7 3 -2 5 12 5 14 0 19 -2 13 -5z m-1451 -48 c12 -15 10 -22
-8 -29 -8 -3 -22 1 -30 9 -9 8 -12 15 -7 16 4 0 -1 5 -12 10 -16 7 -13 8 15 6
19 -1 38 -6 42 -12z m220 -23 c-9 -7 -11 -11 -5 -7 7 3 20 2 29 -3 14 -8 14
-10 0 -24 -8 -9 -13 -18 -10 -21 3 -3 0 -8 -6 -12 -6 -3 -10 -3 -9 2 3 20 -2
25 -16 13 -10 -9 -15 -9 -15 -1 0 6 4 11 9 11 5 0 9 16 9 36 0 25 -3 33 -9 23
-5 -8 -9 -9 -9 -3 0 19 12 23 30 11 17 -10 17 -12 2 -25z m813 29 c-3 -5 -1
-12 5 -16 5 -3 10 -14 10 -25 0 -10 7 -21 16 -24 8 -3 12 -10 9 -16 -3 -6 1
-13 9 -16 20 -8 10 -26 -12 -23 -32 3 -41 -1 -36 -16 9 -22 -20 -19 -41 5 -23
25 -28 69 -9 77 8 3 11 10 7 17 -4 6 1 5 10 -3 19 -15 23 -36 5 -25 -7 4 -8 3
-4 -4 4 -6 13 -9 22 -5 9 3 11 9 6 17 -5 6 -8 19 -7 29 2 9 -1 17 -6 17 -6 0
-7 5 -4 10 3 6 11 10 16 10 6 0 8 -4 4 -9z m-335 -103 c0 -4 -6 -8 -14 -8 -8
0 -17 4 -20 8 -2 4 4 8 15 8 10 0 19 -4 19 -8z m-473 -22 c-13 -14 -37 -17
-37 -4 0 4 5 8 11 8 5 0 8 4 5 9 -4 5 3 7 13 4 15 -4 17 -8 8 -17z m1363 18
c0 -8 -19 -13 -24 -6 -3 5 1 9 9 9 8 0 15 -2 15 -3z m-813 -46 c-3 -8 -6 -5
-6 6 -1 11 2 17 5 13 3 -3 4 -12 1 -19z m-597 4 c0 -5 -7 -17 -15 -28 -14 -18
-14 -17 -4 9 12 27 19 34 19 19z m45 -11 c3 -5 1 -12 -4 -15 -4 -3 -7 -25 -5
-49 3 -37 1 -43 -16 -43 -20 0 -22 18 -6 81 2 11 5 23 5 28 1 10 19 9 26 -2z
m465 -1 c0 -5 -5 -10 -11 -10 -5 0 -7 5 -4 10 3 6 8 10 11 10 2 0 4 -4 4 -10z
m382 -25 c2 -14 -2 -20 -14 -19 -10 1 -18 -2 -18 -7 0 -5 -4 -9 -8 -9 -4 0 -8
14 -7 30 0 31 9 40 18 18 3 -7 6 -4 6 7 1 23 18 9 23 -20z m20 3 c-7 -7 -12
-8 -12 -2 0 14 12 26 19 19 2 -3 -1 -11 -7 -17z m-622 -4 c0 -10 -6 -14 -15
-11 -10 5 -16 -4 -21 -29 -7 -40 -24 -28 -24 16 0 20 2 22 10 10 8 -13 10 -12
10 4 0 12 5 16 15 12 8 -3 15 -1 15 4 0 6 2 10 5 10 3 0 5 -7 5 -16z m232 -29
c-6 -34 -12 -32 -12 6 0 16 4 28 9 25 4 -3 6 -17 3 -31z m-152 11 c0 -2 -7 -6
-15 -10 -8 -3 -15 -1 -15 4 0 6 7 10 15 10 8 0 15 -2 15 -4z m-425 -36 c-3 -5
-12 -10 -18 -10 -7 0 -6 4 3 10 19 12 23 12 15 0z m43 -15 c-3 -3 -9 2 -12 12
-6 14 -5 15 5 6 7 -7 10 -15 7 -18z m1162 15 c0 -5 -2 -10 -4 -10 -3 0 -8 5
-11 10 -3 6 -1 10 4 10 6 0 11 -4 11 -10z m-850 -21 c0 -5 -4 -9 -10 -9 -5 0
-10 7 -10 16 0 8 5 12 10 9 6 -3 10 -10 10 -16z m690 0 c0 -6 -4 -7 -10 -4 -5
3 -10 11 -10 16 0 6 5 7 10 4 6 -3 10 -11 10 -16z m-1131 -15 c-17 -21 -31
-17 -19 6 6 11 15 18 21 14 6 -4 6 -11 -2 -20z m43 -7 c8 4 9 0 5 -11 -4 -10
-7 -34 -7 -53 0 -20 -3 -33 -7 -29 -4 4 -6 23 -5 44 2 35 1 36 -13 18 -18 -24
-19 -19 -3 25 9 24 13 29 16 16 2 -9 8 -14 14 -10z m363 -27 c3 -5 1 -10 -4
-10 -6 0 -11 5 -11 10 0 6 2 10 4 10 3 0 8 -4 11 -10z m803 -2 c-2 -6 -10 -13
-16 -14 -9 -2 -9 -1 -1 3 8 4 7 8 -2 14 -11 7 -10 9 4 9 10 0 17 -5 15 -12z
m-1134 -24 c3 -8 10 -12 16 -9 5 3 10 -3 10 -14 0 -11 -4 -22 -10 -26 -5 -3
-7 -12 -4 -19 3 -8 1 -17 -5 -21 -6 -3 -11 1 -11 10 0 9 -4 14 -8 11 -5 -3
-10 15 -10 39 -2 44 10 60 22 29z m806 -8 c0 -2 -8 -10 -17 -17 -16 -13 -17
-12 -4 4 13 16 21 21 21 13z m-750 -21 c0 -8 -4 -15 -8 -15 -5 0 -9 7 -9 15 0
8 4 15 9 15 4 0 8 -7 8 -15z m740 -25 c-12 -16 -24 -30 -26 -30 -7 0 5 20 24
43 24 27 25 20 2 -13z m-600 10 c-8 -5 -19 -10 -25 -10 -5 0 -3 5 5 10 8 5 20
10 25 10 6 0 3 -5 -5 -10z m81 -3 c-7 -7 -14 -8 -21 -1 -6 6 -2 10 12 11 16 2
18 -1 9 -10z m649 -29 c0 -5 -7 -8 -15 -8 -15 0 -20 21 -8 33 7 7 23 -11 23
-25z m-678 -3 c3 -13 1 -22 -3 -19 -5 3 -9 -10 -9 -28 0 -25 3 -29 10 -18 6 9
10 10 10 3 0 -7 -9 -17 -21 -24 -29 -15 -42 1 -29 36 6 15 8 37 4 49 -6 21 -6
21 10 1 15 -20 15 -20 16 3 0 29 6 28 12 -3z m56 -13 c10 -30 10 -32 -8 -22
-21 11 -24 19 -14 45 8 19 8 19 22 -23z m707 28 c3 -5 1 -10 -4 -10 -6 0 -11
5 -11 10 0 6 2 10 4 10 3 0 8 -4 11 -10z m-66 -17 c-1 -10 -1 -27 0 -38 1 -16
3 -17 10 -6 8 12 11 9 16 -11 4 -15 5 -35 2 -45 -3 -12 -5 -9 -6 10 -1 28 -15
37 -24 15 -3 -8 -6 -5 -6 6 -1 14 -4 16 -14 7 -8 -6 -18 -7 -23 -3 -4 4 -2 -2
6 -13 8 -11 10 -17 5 -12 -4 4 -18 -1 -29 -10 -18 -16 -19 -16 -8 -1 8 10 11
26 7 38 -4 11 -3 20 2 19 24 -4 35 4 44 31 12 33 21 40 18 13z m-805 -33 c-6
-6 -10 -3 -10 10 0 13 4 16 10 10 7 -7 7 -13 0 -20z m727 -15 c-6 -34 -8 -37
-15 -18 -4 13 -2 30 6 42 16 26 17 24 9 -24z m133 3 c-4 -6 -10 -5 -15 3 -14
22 -10 33 6 19 8 -7 12 -17 9 -22z m362 5 c-7 -7 -26 7 -26 19 0 6 6 6 15 -2
9 -7 13 -15 11 -17z m-1086 -8 c0 -8 -2 -15 -4 -15 -2 0 -6 7 -10 15 -3 8 -1
15 4 15 6 0 10 -7 10 -15z m-286 -30 c-4 -8 -8 -15 -10 -15 -2 0 -4 7 -4 15 0
8 4 15 10 15 5 0 7 -7 4 -15z m157 -148 c-10 -9 -11 -8 -5 6 3 10 9 15 12 12
3 -3 0 -11 -7 -18z m1089 -17 c-20 -13 -33 -13 -25 0 3 6 14 10 23 10 15 0 15
-2 2 -10z m-283 -22 c-3 -8 -6 -5 -6 6 -1 11 2 17 5 13 3 -3 4 -12 1 -19z
m319 7 c-8 -8 -20 -15 -27 -15 -9 0 -8 4 1 15 7 8 19 15 27 15 12 0 12 -2 -1
-15z m-140 -16 c3 -6 -1 -18 -10 -27 -13 -13 -18 -14 -28 -3 -11 10 -9 11 6 5
16 -6 18 -4 14 14 -6 23 6 30 18 11z m122 -21 c-3 -7 -10 -13 -16 -12 -7 1
-24 2 -39 3 -22 1 -25 3 -13 11 22 14 73 13 68 -2z m-629 -155 c-6 -7 -8 -17
-5 -22 7 -11 -11 -24 -36 -26 -25 -2 -22 7 13 38 17 15 26 27 19 27 -6 0 -8 5
-4 11 4 8 9 7 15 -2 4 -7 3 -19 -2 -26z m71 33 c0 -2 -8 -10 -17 -17 -16 -13
-17 -12 -4 4 13 16 21 21 21 13z"/>
<path d="M2260 2708 c-12 -22 -12 -22 6 -6 10 10 15 20 12 24 -4 3 -12 -5 -18
-18z"/>
<path d="M1895 1899 c-4 -6 -5 -12 -2 -15 2 -3 7 2 10 11 7 17 1 20 -8 4z"/>
<path d="M2676 1847 c3 -10 9 -15 12 -12 3 3 0 11 -7 18 -10 9 -11 8 -5 -6z"/>
<path d="M2002 1470 c0 -14 2 -19 5 -12 2 6 2 18 0 25 -3 6 -5 1 -5 -13z"/>
<path d="M2589 3333 c-1 -5 -1 -20 -1 -35 -1 -15 -5 -25 -9 -22 -5 3 -9 0 -9
-5 0 -6 6 -11 14 -11 8 0 22 -3 31 -7 14 -5 16 -2 10 17 -5 14 -3 20 3 16 6
-3 13 0 16 6 3 7 3 1 0 -13 -3 -15 -1 -30 5 -33 5 -4 8 -13 4 -21 -3 -9 1 -15
8 -15 11 0 11 -3 -1 -10 -11 -7 -5 -10 23 -10 34 0 42 -7 38 -33 -1 -5 3 -6 8
-2 6 3 8 12 5 19 -3 7 2 18 10 25 11 10 17 8 30 -10 14 -20 14 -25 1 -39 -18
-19 -20 -40 -4 -40 6 0 9 6 7 12 -5 13 19 43 33 43 4 0 11 4 16 9 5 5 -2 7
-16 3 -20 -5 -22 -3 -19 18 4 18 1 23 -14 20 -11 -2 -18 2 -18 10 0 8 -15 21
-34 29 -19 8 -51 30 -72 50 -36 34 -63 46 -65 29z m25 -59 c3 -8 2 -12 -4 -9
-6 3 -10 10 -10 16 0 14 7 11 14 -7z m133 -47 c0 -7 -6 -18 -14 -25 -17 -17
-19 8 -1 26 15 15 15 15 15 -1z"/>
<path d="M2016 3250 c-11 -3 -15 -9 -10 -13 10 -6 42 9 34 16 -3 3 -14 1 -24
-3z"/>
<path d="M2587 3233 c-2 -5 0 -21 4 -38 7 -29 7 -28 6 8 -1 38 -3 43 -10 30z"/>
<path d="M2621 3214 c-16 -37 -9 -39 11 -3 9 16 14 29 9 29 -4 0 -13 -12 -20
-26z"/>
<path d="M2565 3199 c-4 -6 -5 -12 -2 -15 2 -3 7 2 10 11 7 17 1 20 -8 4z"/>
<path d="M2830 3148 c-12 -22 -12 -22 6 -6 10 10 15 20 12 24 -4 3 -12 -5 -18
-18z"/>
<path d="M2857 3133 c-4 -3 -7 -11 -7 -17 0 -6 5 -5 12 2 6 6 9 14 7 17 -3 3
-9 2 -12 -2z"/>
<path d="M3268 3103 c6 -2 18 -2 25 0 6 3 1 5 -13 5 -14 0 -19 -2 -12 -5z"/>
<path d="M3305 1900 c-16 -7 -17 -9 -3 -9 9 -1 20 4 23 9 7 11 7 11 -20 0z"/>
<path d="M1095 1736 c-6 -7 -28 -38 -51 -67 -88 -117 -264 -432 -264 -472 0
-9 16 -34 35 -56 l35 -38 -15 -44 c-26 -73 -53 -188 -70 -304 -23 -145 -17
-224 39 -505 8 -41 18 -114 21 -163 l7 -87 1440 2 1441 3 39 100 c100 258 124
371 114 544 -3 64 -9 132 -12 152 -5 33 -4 37 22 43 40 10 128 72 143 100 16
28 7 59 -69 251 -97 244 -200 417 -200 337 0 -31 -45 -153 -89 -242 -93 -187
-319 -490 -545 -730 -72 -76 -224 -229 -353 -353 l-71 -70 -47 149 c-25 82
-52 166 -60 188 -15 41 -13 56 9 56 27 0 49 93 60 247 l5 72 -52 19 c-105 39
-226 72 -265 72 -47 0 -197 -47 -273 -85 l-52 -27 6 -89 c7 -98 30 -158 71
-184 l24 -16 -29 -77 c-16 -42 -36 -90 -44 -107 -8 -16 -23 -52 -33 -79 l-19
-49 -39 48 c-21 27 -53 64 -70 84 -100 118 -311 411 -447 621 -79 122 -223
406 -254 500 -34 102 -53 184 -53 229 0 42 -16 54 -35 27z"/>
<path d="M3318 1613 c7 -3 16 -2 19 1 4 3 -2 6 -13 5 -11 0 -14 -3 -6 -6z"/>
<path d="M1535 1590 c-16 -7 -17 -9 -3 -9 9 -1 19 -7 21 -13 3 -7 6 -3 6 10 1
12 0 22 -1 21 -2 0 -12 -4 -23 -9z"/>
<path d="M1580 1580 c-9 -6 -10 -10 -3 -10 6 0 15 5 18 10 8 12 4 12 -15 0z"/>
<path d="M1579 1548 c15 -21 31 -23 31 -6 0 6 -3 8 -7 5 -3 -4 -13 -1 -22 6
-14 11 -14 10 -2 -5z"/>
<path d="M1780 1380 c0 -5 5 -10 10 -10 6 0 10 5 10 10 0 6 -4 10 -10 10 -5 0
-10 -4 -10 -10z"/>
<path d="M3135 1360 c-3 -5 -1 -10 4 -10 6 0 11 5 11 10 0 6 -2 10 -4 10 -3 0
-8 -4 -11 -10z"/>
<path d="M3095 1320 c-3 -5 -1 -10 4 -10 6 0 11 5 11 10 0 6 -2 10 -4 10 -3 0
-8 -4 -11 -10z"/>
<path d="M1820 1300 c0 -5 7 -10 16 -10 8 0 12 5 9 10 -3 6 -10 10 -16 10 -5
0 -9 -4 -9 -10z"/>
<path d="M2944 1175 c-18 -14 -18 -14 4 -8 12 3 22 9 22 14 0 12 -3 11 -26 -6z"/>
</g>
</svg>
